<svg xmlns="http://www.w3.org/2000/svg" width="682" height="329.9" viewBox="0 0 682 329.9">
  <style>
    .st0{fill:#ccc}
  </style>
  <path class="st0" d="M5.6 253l13 6.6 4.7-3V214H1.9v-11h33.5v55.5c0 1.1-.2 2-.7 2.9-.5.9-1.1 1.6-1.9 2.1l-11.1 7.2c-.7.4-1.6.7-2.8.7-.9 0-1.8-.2-2.7-.7L0 262l5.6-9zM80.3 269.7V246H63.2v23.7h-12v-53.3c-.1-1.3.3-2.4 1.1-3.4.8-.9 1.7-1.7 2.5-2.2l16.7-8.9c.9-.4 1.8-.7 2.7-.7 1.2 0 2.1.2 2.8.7l12.7 8.3c.8.5 1.4 1.2 1.9 2.1s.7 1.8.7 2.9v54.4h-12zm0-52.1l-6.3-4.1-10.8 5.6v15.8h17.1v-17.3zM133.6 222.9v-9.2h-13v41.8l6.3 4.1 13.4-7.6 5.8 8.9-16.6 9.6c-.9.4-1.8.7-2.7.7-1.2 0-2.1-.2-2.8-.7l-12.7-8.3a5.5 5.5 0 0 1-1.9-2.1c-.5-.9-.7-1.8-.7-2.9V209l.3-1.9a6.6 6.6 0 0 1 3-3.6c.7-.4 1.7-.7 2.8-.7h30.8l-.9 19.9h-11.1zM188.7 269.7l-.7-25.4-11.6-8.3-4 5v28.8h-12.1V203h12.1v22.5l15.2-20.4a5.8 5.8 0 0 1 4.6-2.2h8l-.1 11.1h-6l-10 13.2 12.8 8a7 7 0 0 1 2.5 3c.4 1.1.7 2.3.7 3.6l.7 27.7h-12.1zM213.5 191.6h10.4l-.9 19.5h-9.4v-19.5zM265.2 222.9v-9.2h-13.3v7c0 1.5.7 2.8 2.2 3.9l19.5 10.2c1.4.7 2.6 1.9 3.4 3.3.8 1.5 1.2 3.1 1.2 4.9v13.2c.1 1.3-.3 2.4-1.1 3.4-.8.9-1.7 1.7-2.5 2.2l-15.7 8.9c-.9.4-1.8.7-2.7.7-1.2 0-2.1-.2-2.8-.7l-12.7-8.3a5.5 5.5 0 0 1-1.9-2.1c-.5-.9-.7-1.8-.7-2.9v-14.9H250v13l6.3 4.1 9.8-5.6v-6.5c0-1.1-.3-2-.8-2.9a7.3 7.3 0 0 0-2.1-2.2l-18.7-9.4c-1.8-.9-3-2.1-3.7-3.6-.7-1.6-1-3.1-1-4.6V209l.3-1.9a6.6 6.6 0 0 1 3-3.6c.7-.4 1.7-.7 2.8-.7h25.3c1.1 0 2.1.2 2.8.7a6 6 0 0 1 1.9 1.6c.5.6.9 1.3 1.1 2l.3 1.9v13.8h-12.1zM311 269.7v-66.2l32.5-.5c1.1 0 2.1.2 2.8.7.7.4 1.4 1 1.9 1.6.5.6.9 1.3 1.1 2l.3 1.9v33.2c0 1.1-.5 2.2-1.4 3.6-.9 1.3-2.5 2.2-4.7 2.5l-20.5 4.4v16.9h-12zm26.5-56H323v27.1l14.5-3.6v-23.5zM393.1 269.7V246H376v23.7h-12.1v-53.3c-.1-1.3.3-2.4 1.1-3.4.8-.9 1.7-1.7 2.5-2.2l16.7-8.9c.9-.4 1.8-.7 2.7-.7 1.2 0 2.1.2 2.8.7l12.7 8.3c.8.5 1.5 1.2 1.9 2.1.5.9.7 1.8.7 2.9v54.4h-11.9zm0-52.1l-6.3-4.1-10.8 5.6v15.8h17.1v-17.3zM446.3 222.9v-9.2h-13v41.8l6.3 4.1L453 252l5.8 8.9-16.6 9.6c-.9.4-1.8.7-2.7.7-1.2 0-2.1-.2-2.8-.7l-12.7-8.3a5.5 5.5 0 0 1-1.9-2.1c-.5-.9-.7-1.8-.7-2.9V209l.3-1.9a6.6 6.6 0 0 1 3-3.6c.7-.4 1.7-.7 2.8-.7h30.8l-.9 19.9h-11.1zM501.5 269.7l-.7-25.4-11.6-8.3-4 5v28.8h-12.1V203h12.1v22.5l15.2-20.4a5.8 5.8 0 0 1 4.6-2.2h8l-.1 11.1h-6l-10 13.2 12.8 8a7 7 0 0 1 2.5 3c.4 1.1.7 2.3.7 3.6l.7 27.7h-12.1zM558 269.7V246h-17.1v23.7h-12.1v-53.3c-.1-1.3.3-2.4 1.1-3.4.8-.9 1.7-1.7 2.5-2.2l16.7-8.9c.9-.4 1.8-.7 2.7-.7 1.2 0 2.1.2 2.8.7l12.7 8.3c.8.5 1.5 1.2 1.9 2.1.5.9.7 1.8.7 2.9v54.4H558zm0-52.1l-6.3-4.1-10.8 5.6v15.8H558v-17.3zM586.1 257.4V209l.3-1.9c.2-.7.6-1.4 1.1-2a6 6 0 0 1 1.9-1.6c.7-.4 1.7-.6 2.8-.6h33.9l-.9 19h-10.8v-8.2h-16.1v41.8l6.3 4.1 9.8-5.5v-14.9H605v-10.6h21.4v27.5c-.2 2.4-1.2 4.1-3 5.1l-16.4 9.4c-.9.4-1.8.7-2.7.7-1.2 0-2.1-.2-2.8-.7l-12.7-8.3a5.5 5.5 0 0 1-1.9-2.1c-.5-.8-.8-1.7-.8-2.8zM642.2 263.6V203h35.3v11.3h-23.2v14.4h21.3V240h-21.3v18.3h23.2v11.3h-29.2c-1.1 0-2.1-.2-2.8-.7-.7-.4-1.4-1-1.9-1.6-.5-.6-.9-1.3-1.1-2l-.3-1.7z"/>
  <g>
    <path class="st0" d="M190.3 311H4.1c-.9 0-1.7.9-1.7 2s.8 2 1.7 2h186.2c.9 0 1.7-.9 1.7-2s-.8-2-1.7-2M162.2 300H4.1c-1.4 0-2.6 1.3-2.6 3s1.1 3 2.6 3h158.1c1.4 0 2.6-1.3 2.6-3s-1.2-3-2.6-3M162.2 321h-96c-.9 0-1.7.9-1.7 2s.8 2 1.7 2h96.1c.9 0 1.7-.9 1.7-2-.1-1.1-.9-2-1.8-2"/>
  </g>
  <g>
    <path class="st0" d="M493.2 311h186.2c.9 0 1.7.9 1.7 2s-.8 2-1.7 2H493.2c-.9 0-1.7-.9-1.7-2s.8-2 1.7-2M521.3 300h158.1c1.4 0 2.6 1.3 2.6 3s-1.1 3-2.6 3H521.3c-1.4 0-2.6-1.3-2.6-3s1.2-3 2.6-3M521.3 321h96.1c.9 0 1.7.9 1.7 2s-.8 2-1.7 2h-96.1c-.9 0-1.7-.9-1.7-2s.8-2 1.7-2"/>
  </g>
  <g>
    <path d="M343.3 157.9a79 79 0 0 1-72-46.5l-1.6-3.4 2.7-2.7 11.2-11.2 7.7 7.7-8.5 8.5a68.3 68.3 0 0 0 60.4 36.7c15.4 0 33.3-9.5 42-14.7L286.1 23.8l4.5-3.6c1-.8 25.3-20.2 52.7-20.2a78.8 78.8 0 0 1 61.4 29.3l3.1 3.8-15 15-7.7-7.7 7.9-7.9a67.7 67.7 0 0 0-49.7-21.6 79.2 79.2 0 0 0-41.1 14.4l99.7 109-5.1 3.6c-1.2.8-28.9 20-53.5 20z" fill="#fff"/>
  </g>
  <g>
    <path class="st0" d="M341.3 142.3a54 54 0 0 1-31.5-9.9l-5.4-3.7 27.6-20.9 5.7 7.6L321 128a46.3 46.3 0 0 0 41.1-.2l-75.4-82.1 7-6.4 83 90.5-4.4 3.1c-.3.2-7.9 5.4-19.3 8a50 50 0 0 1-11.7 1.4z"/>
  </g>
  <g>
    <path class="st0" d="M345.3 14.4a54 54 0 0 1 31.5 9.9l5.4 3.7-27.6 20.9-5.7-7.6 16.7-12.7a46.3 46.3 0 0 0-41.1.2l75.4 83.1-7 6.4-83-91.5 4.4-3.1c.3-.2 7.9-5.4 19.3-8 3.4-.7 7.3-1.3 11.7-1.3z"/>
  </g>
  <g>
    <path class="st0" d="M220.3 299.2c-3.3 0-5.4 1.2-5.4 3.4 0 7.4 19.6 3.4 19.5 16.5 0 6.8-5.9 10.8-14 10.8-5.8 0-11.5-2.3-15.4-5.8l2.9-5.9c3.8 3.3 8.7 5.4 12.6 5.4s6.3-1.5 6.3-4c0-7.6-19.6-3.3-19.6-16.3 0-6.4 5.5-10.4 13.7-10.4a25 25 0 0 1 13.2 3.9l-2.8 6c-4-2.4-8.2-3.6-11-3.6zM292.8 293.1v6.2h-11.4v30.3h-7v-30.3H263v-6.2h29.8zM357.8 311.4c0 10.5-8.4 18.6-19.4 18.6s-19.4-8.1-19.4-18.6c0-10.5 8.4-18.5 19.4-18.5s19.4 8 19.4 18.5zm-31.8 0c0 6.9 5.7 12.3 12.4 12.3s12.2-5.4 12.2-12.3-5.5-12.2-12.2-12.2c-6.8 0-12.4 5.3-12.4 12.2zM412.8 329.6l-6.3-10.8-1.3.1H397v10.7h-7v-36.5h15.2c9.4 0 14.8 4.5 14.8 12.6 0 5.7-2.6 9.9-7.2 11.8l8 12.1h-8zm-15.9-16.9h8.2c5.2 0 8.1-2.2 8.1-6.8 0-4.5-2.9-6.7-8.1-6.7h-8.2v13.5zM480.5 293.1v6.1h-19.8v9h17.7v6.1h-17.7v9.2h20.4v6.1h-27.4v-36.5h26.8z"/>
  </g>
</svg>
